# Tiled2Unity generated file. Do not modify by hand.
# Wavefront file for 'RW_Level1_mesh_0003.obj'

# Vertices (Count = 28)
v -2.4 -0.32 0
v -2.56 -0.32 0
v -2.56 -0.16 0
v -2.4 -0.16 0
v -3.36 -0.32 0
v -3.52 -0.32 0
v -3.52 -0.16 0
v -3.36 -0.16 0
v -1.76 -1.12 0
v -1.92 -1.12 0
v -1.92 -0.96 0
v -1.76 -0.96 0
v -0.64 -1.92 0
v -0.8 -1.92 0
v -0.8 -1.76 0
v -0.64 -1.76 0
v -2.72 -1.92 0
v -2.88 -1.92 0
v -2.88 -1.76 0
v -2.72 -1.76 0
v -2.24 -2.72 0
v -2.4 -2.72 0
v -2.4 -2.56 0
v -2.24 -2.56 0
v -2.4 -2.72 0
v -2.56 -2.72 0
v -2.56 -2.56 0
v -2.4 -2.56 0

# Texture cooridinates (Count = 12)
vt 0.5619835 0.9695817
vt 0.5785124 0.9695817
vt 0.5785124 1
vt 0.5619835 1
vt 0.4917355 0.7756654
vt 0.5082645 0.7756654
vt 0.5082645 0.8060837
vt 0.4917355 0.8060837
vt 0.5092975 0.7756654
vt 0.5258265 0.7756654
vt 0.5258265 0.8060837
vt 0.5092975 0.8060837

# Normal
vn 0 0 -1

# Mesh description
g RW_Level1_mesh_0003

# Faces
f 1/1/1 2/2/1 3/3/1 4/4/1
f 5/1/1 6/2/1 7/3/1 8/4/1
f 9/1/1 10/2/1 11/3/1 12/4/1
f 13/1/1 14/2/1 15/3/1 16/4/1
f 17/1/1 18/2/1 19/3/1 20/4/1
f 21/5/1 22/6/1 23/7/1 24/8/1
f 25/9/1 26/10/1 27/11/1 28/12/1

